<svg width="100" height="100" viewBox="0 0 100 100" fill="none" xmlns="http://www.w3.org/2000/svg">
<g clip-path="url(#clip0_1298_359)">
<path d="M0 33.2C0 5.8598 5.8598 0 33.2 0H66.8C94.1402 0 100 5.8598 100 33.2V66.8C100 94.1402 94.1402 100 66.8 100H33.2C5.8598 100 0 94.1402 0 66.8V33.2Z" fill="white"/>
<path d="M68.6177 43.2297C68.6177 37.4194 66.5755 34.5143 62.4911 34.5143C60.8228 34.5143 59.2408 35.0321 57.7451 36.0675C56.2494 37.0455 55.1276 38.4837 54.3797 40.3821V41.6764V66.0104C54.3797 67.1035 54.8112 68.0527 55.6741 68.858C56.537 69.6634 57.515 70.1812 58.608 70.4113C59.0682 70.5263 59.2983 70.9003 59.2983 71.5331V71.9645C59.2983 72.3672 59.2408 72.6548 59.1257 72.8274C59.0107 72.9425 58.8093 73 58.5217 73C57.1986 73 55.8467 72.9137 54.466 72.7411C52.6251 72.6261 51.2733 72.5685 50.4103 72.5685C49.4899 72.5685 48.1668 72.6261 46.441 72.7411C45.1754 72.9137 43.8522 73 42.4716 73C42.184 73 41.9826 72.9425 41.8676 72.8274C41.7525 72.6548 41.695 72.3672 41.695 71.9645V71.5331C41.695 71.1879 41.7813 70.929 41.9538 70.7564C42.1264 70.5839 42.3853 70.44 42.7305 70.325C43.766 70.0373 44.6576 69.5196 45.4055 68.7718C46.2109 67.9664 46.6136 67.0459 46.6136 66.0104V43.2297C46.6136 37.4194 44.5713 34.5143 40.4869 34.5143C38.8186 34.5143 37.2366 35.0033 35.7409 35.9813C34.2452 36.9592 33.1234 38.3974 32.3756 40.2958V66.0104C32.3756 67.1035 32.807 68.0527 33.6699 68.858C34.5328 69.6634 35.5108 70.1812 36.6038 70.4113C37.064 70.5263 37.2941 70.9003 37.2941 71.5331V71.9645C37.2941 72.3672 37.2366 72.6548 37.1216 72.8274C37.0065 72.9425 36.8052 73 36.5175 73C35.1944 73 33.8425 72.9137 32.4619 72.7411C30.621 72.6261 29.2691 72.5685 28.4062 72.5685C27.4858 72.5685 26.1626 72.6261 24.4368 72.7411C23.1712 72.9137 21.8481 73 20.4674 73C20.1798 73 19.9785 72.9425 19.8634 72.8274C19.7484 72.6548 19.6908 72.3672 19.6908 71.9645V71.5331C19.6908 71.1879 19.7771 70.929 19.9497 70.7564C20.1223 70.5839 20.3812 70.44 20.7263 70.325C21.7618 70.0373 22.6535 69.5196 23.4013 68.7718C24.2067 67.9664 24.6094 67.0459 24.6094 66.0104V41.0724C24.6094 38.7713 23.2575 37.2756 20.5537 36.5853C20.151 36.5278 19.9497 36.2401 19.9497 35.7224V35.0321C19.9497 34.5718 20.1798 34.2842 20.64 34.1691C22.3658 33.824 24.0917 33.1624 25.8175 32.1845C27.5433 31.149 28.9239 30.1135 29.9594 29.078C30.132 28.9054 30.3334 28.8191 30.5635 28.8191L31.2538 28.9917C31.7715 29.2218 32.0304 29.567 32.0304 30.0272V36.3264C34.8492 31.4366 38.7323 28.9917 43.6797 28.9917C46.2109 28.9917 48.3394 29.682 50.0652 31.0627C51.8485 32.3858 53.0854 34.2842 53.7757 36.7579C55.2139 34.1691 56.9397 32.242 58.9531 30.9764C61.0241 29.6533 63.2677 28.9917 65.6838 28.9917C69.0204 28.9917 71.6379 30.1422 73.5363 32.4433C75.4347 34.6869 76.3839 37.7646 76.3839 41.6764V66.0104C76.3839 67.1035 76.8153 68.0527 77.6782 68.858C78.5411 69.6634 79.5191 70.1812 80.6121 70.4113C81.0723 70.5263 81.3024 70.9003 81.3024 71.5331V71.9645C81.3024 72.3672 81.2449 72.6548 81.1299 72.8274C81.0148 72.9425 80.8135 73 80.5258 73C79.2027 73 77.8508 72.9137 76.4702 72.7411C74.6293 72.6261 73.2774 72.5685 72.4145 72.5685C71.4941 72.5685 70.1709 72.6261 68.4451 72.7411C67.1795 72.9137 65.8564 73 64.4757 73C64.1881 73 63.9868 72.9425 63.8717 72.8274C63.7567 72.6548 63.6991 72.3672 63.6991 71.9645V71.5331C63.6991 71.1879 63.7854 70.929 63.958 70.7564C64.1306 70.5839 64.3895 70.44 64.7346 70.325C65.7701 70.0373 66.6618 69.5196 67.4096 68.7718C68.215 67.9664 68.6177 67.0459 68.6177 66.0104V43.2297Z" fill="url(#paint0_linear_1298_359)"/>
</g>
<defs>
<linearGradient id="paint0_linear_1298_359" x1="50.26" y1="-20" x2="50.26" y2="95" gradientUnits="userSpaceOnUse">
<stop stop-color="#FFBEA2"/>
<stop offset="1" stop-color="#FF70B4"/>
</linearGradient>
<clipPath id="clip0_1298_359">
<rect width="100" height="100" fill="white"/>
</clipPath>
</defs>
</svg>
